<svg xmlns="http://www.w3.org/2000/svg" width="170" height="170" viewBox="0 0 170 170" role="img" aria-labelledby="title desc" shape-rendering="crispEdges">
  <title id="title">v ANSI art</title>
  <desc id="desc">Cell-accurate SVG rendering of terminal ANSI art generated by cmd/generate-assets.</desc>
  <defs>
    <linearGradient id="border-gradient" x1="0" y1="0" x2="1" y2="1">
      <stop offset="0" stop-color="#8f9876"/>
      <stop offset="0.5" stop-color="#aaa27f"/>
      <stop offset="1" stop-color="#788f7a"/>
    </linearGradient>
  </defs>
  <rect width="100%" height="100%" fill="#141719"/>
  <rect x="2" y="2" width="166" height="166" fill="none" stroke="url(#border-gradient)" stroke-width="4" opacity="0.9"/>
  <rect x="10" y="10" width="150" height="150" fill="none" stroke="url(#border-gradient)" stroke-width="2" opacity="0.45"/>
  <g transform="translate(12 27)">
    <rect x="8" y="8" width="10" height="18" fill="#8f9876"/>
    <rect x="18" y="8" width="10" height="18" fill="#8d9776"/>
    <rect x="28" y="8" width="10" height="18" fill="#8b9676"/>
    <rect x="38" y="8" width="10" height="18" fill="#899577"/>
    <rect x="88" y="8" width="10" height="18" fill="#7f9278"/>
    <rect x="98" y="8" width="10" height="18" fill="#7d9179"/>
    <rect x="108" y="8" width="10" height="18" fill="#7b9079"/>
    <rect x="118" y="8" width="10" height="18" fill="#798f79"/>
    <rect x="8" y="26" width="10" height="18" fill="#8f9876"/>
    <rect x="18" y="26" width="10" height="18" fill="#8d9776"/>
    <rect x="28" y="26" width="10" height="18" fill="#8b9676"/>
    <rect x="38" y="26" width="10" height="18" fill="#899577"/>
    <rect x="48" y="26" width="10" height="18" fill="#879577" opacity="0.42"/>
    <rect x="88" y="26" width="10" height="18" fill="#7f9278"/>
    <rect x="98" y="26" width="10" height="18" fill="#7d9179"/>
    <rect x="108" y="26" width="10" height="18" fill="#7b9079"/>
    <rect x="118" y="26" width="10" height="18" fill="#798f79"/>
    <rect x="128" y="26" width="10" height="18" fill="#788f7a" opacity="0.42"/>
    <rect x="8" y="44" width="10" height="18" fill="#8f9876"/>
    <rect x="18" y="44" width="10" height="18" fill="#8d9776"/>
    <rect x="28" y="44" width="10" height="18" fill="#8b9676"/>
    <rect x="38" y="44" width="10" height="18" fill="#899577"/>
    <rect x="48" y="44" width="10" height="18" fill="#879577" opacity="0.42"/>
    <rect x="88" y="44" width="10" height="18" fill="#7f9278"/>
    <rect x="98" y="44" width="10" height="18" fill="#7d9179"/>
    <rect x="108" y="44" width="10" height="18" fill="#7b9079"/>
    <rect x="118" y="44" width="10" height="18" fill="#798f79"/>
    <rect x="128" y="44" width="10" height="18" fill="#788f7a" opacity="0.42"/>
    <rect x="18" y="62" width="10" height="18" fill="#8d9776" opacity="0.42"/>
    <rect x="28" y="62" width="10" height="18" fill="#8b9676"/>
    <rect x="38" y="62" width="10" height="18" fill="#899577"/>
    <rect x="48" y="62" width="10" height="18" fill="#879577"/>
    <rect x="58" y="62" width="10" height="18" fill="#859477"/>
    <rect x="68" y="62" width="10" height="18" fill="#839378"/>
    <rect x="78" y="62" width="10" height="18" fill="#819278"/>
    <rect x="88" y="62" width="10" height="18" fill="#7f9278"/>
    <rect x="98" y="62" width="10" height="18" fill="#7d9179"/>
    <rect x="108" y="62" width="10" height="18" fill="#7b9079" opacity="0.42"/>
    <rect x="118" y="62" width="10" height="18" fill="#798f79" opacity="0.42"/>
    <rect x="128" y="62" width="10" height="18" fill="#788f7a" opacity="0.42"/>
    <rect x="38" y="80" width="10" height="18" fill="#899577" opacity="0.42"/>
    <rect x="48" y="80" width="10" height="18" fill="#879577"/>
    <rect x="58" y="80" width="10" height="18" fill="#859477"/>
    <rect x="68" y="80" width="10" height="18" fill="#839378"/>
    <rect x="78" y="80" width="10" height="18" fill="#819278"/>
    <rect x="88" y="80" width="10" height="18" fill="#7f9278" opacity="0.42"/>
    <rect x="98" y="80" width="10" height="18" fill="#7d9179" opacity="0.42"/>
    <rect x="108" y="80" width="10" height="18" fill="#7b9079" opacity="0.42"/>
    <rect x="58" y="98" width="10" height="18" fill="#859477" opacity="0.42"/>
    <rect x="68" y="98" width="10" height="18" fill="#839378" opacity="0.42"/>
    <rect x="78" y="98" width="10" height="18" fill="#819278" opacity="0.42"/>
    <rect x="88" y="98" width="10" height="18" fill="#7f9278" opacity="0.42"/>
  </g>
</svg>
